{
    "asset": {
        "generator": "FBX2glTF v0.13.1",
        "version": "2.0"
    },
    "scene": 0,
    "buffers": [
        {
            "byteLength": 14416,
            "uri": "buffer.bin"
        }
    ],
    "bufferViews": [
        {
            "buffer": 0,
            "byteLength": 312,
            "byteOffset": 0,
            "target": 34963
        },
        {
            "buffer": 0,
            "byteLength": 1392,
            "byteOffset": 312,
            "target": 34962
        },
        {
            "buffer": 0,
            "byteLength": 1392,
            "byteOffset": 1704,
            "target": 34962
        },
        {
            "buffer": 0,
            "byteLength": 928,
            "byteOffset": 3096,
            "target": 34962
        },
        {
            "buffer": 0,
            "byteLength": 504,
            "byteOffset": 4024,
            "target": 34963
        },
        {
            "buffer": 0,
            "byteLength": 2448,
            "byteOffset": 4528,
            "target": 34962
        },
        {
            "buffer": 0,
            "byteLength": 2448,
            "byteOffset": 6976,
            "target": 34962
        },
        {
            "buffer": 0,
            "byteLength": 1632,
            "byteOffset": 9424,
            "target": 34962
        },
        {
            "buffer": 0,
            "byteLength": 288,
            "byteOffset": 11056,
            "target": 34963
        },
        {
            "buffer": 0,
            "byteLength": 1152,
            "byteOffset": 11344,
            "target": 34962
        },
        {
            "buffer": 0,
            "byteLength": 1152,
            "byteOffset": 12496,
            "target": 34962
        },
        {
            "buffer": 0,
            "byteLength": 768,
            "byteOffset": 13648,
            "target": 34962
        }
    ],
    "scenes": [
        {
            "name": "Root Scene",
            "nodes": [
                0
            ]
        }
    ],
    "accessors": [
        {
            "componentType": 5123,
            "type": "SCALAR",
            "count": 156,
            "bufferView": 0,
            "byteOffset": 0
        },
        {
            "componentType": 5126,
            "type": "VEC3",
            "count": 116,
            "bufferView": 1,
            "byteOffset": 0,
            "min": [
                -0.000612725387327373,
                -0.00102397543378174,
                -0.000154402034240775
            ],
            "max": [
                0.000605347682721913,
                0.0135264294221997,
                0.000152683409396559
            ]
        },
        {
            "componentType": 5126,
            "type": "VEC3",
            "count": 116,
            "bufferView": 2,
            "byteOffset": 0
        },
        {
            "componentType": 5126,
            "type": "VEC2",
            "count": 116,
            "bufferView": 3,
            "byteOffset": 0
        },
        {
            "componentType": 5123,
            "type": "SCALAR",
            "count": 252,
            "bufferView": 4,
            "byteOffset": 0
        },
        {
            "componentType": 5126,
            "type": "VEC3",
            "count": 204,
            "bufferView": 5,
            "byteOffset": 0,
            "min": [
                -0.00239265058189631,
                -0.00661027524620295,
                -0.000277777289738879
            ],
            "max": [
                0.00237843906506896,
                -0.000669421104248613,
                0.000276052742265165
            ]
        },
        {
            "componentType": 5126,
            "type": "VEC3",
            "count": 204,
            "bufferView": 6,
            "byteOffset": 0
        },
        {
            "componentType": 5126,
            "type": "VEC2",
            "count": 204,
            "bufferView": 7,
            "byteOffset": 0
        },
        {
            "componentType": 5123,
            "type": "SCALAR",
            "count": 144,
            "bufferView": 8,
            "byteOffset": 0
        },
        {
            "componentType": 5126,
            "type": "VEC3",
            "count": 96,
            "bufferView": 9,
            "byteOffset": 0,
            "min": [
                -0.000426792044891044,
                -0.00533223338425159,
                -0.000302357453620061
            ],
            "max": [
                0.000405286788009107,
                -0.00149753596633673,
                0.000297926453640684
            ]
        },
        {
            "componentType": 5126,
            "type": "VEC3",
            "count": 96,
            "bufferView": 10,
            "byteOffset": 0
        },
        {
            "componentType": 5126,
            "type": "VEC2",
            "count": 96,
            "bufferView": 11,
            "byteOffset": 0
        }
    ],
    "samplers": [
        {}
    ],
    "materials": [
        {
            "name": "Metal",
            "alphaMode": "OPAQUE",
            "doubleSided": false,
            "extras": {
                "fromFBX": {
                    "shadingModel": "Phong",
                    "isTruePBR": false
                }
            },
            "pbrMetallicRoughness": {
                "baseColorFactor": [
                    0.429225981235504,
                    0.429225981235504,
                    0.429225981235504,
                    1.0
                ],
                "metallicFactor": 0.400000005960464,
                "roughnessFactor": 0.200320214033127
            }
        },
        {
            "name": "Dark Metal",
            "alphaMode": "OPAQUE",
            "doubleSided": false,
            "extras": {
                "fromFBX": {
                    "shadingModel": "Phong",
                    "isTruePBR": false
                }
            },
            "pbrMetallicRoughness": {
                "baseColorFactor": [
                    0.102473765611649,
                    0.102473765611649,
                    0.102473765611649,
                    1.0
                ],
                "metallicFactor": 0.400000005960464,
                "roughnessFactor": 0.360275328159332
            }
        },
        {
            "name": "Wood",
            "alphaMode": "OPAQUE",
            "doubleSided": false,
            "extras": {
                "fromFBX": {
                    "shadingModel": "Phong",
                    "isTruePBR": false
                }
            },
            "pbrMetallicRoughness": {
                "baseColorFactor": [
                    0.252942889928818,
                    0.0789710655808449,
                    0.0175334941595793,
                    1.0
                ],
                "metallicFactor": 0.400000005960464,
                "roughnessFactor": 0.390566676855087
            }
        }
    ],
    "meshes": [
        {
            "name": "Great Sword",
            "primitives": [
                {
                    "material": 0,
                    "mode": 4,
                    "attributes": {
                        "NORMAL": 2,
                        "POSITION": 1,
                        "TEXCOORD_0": 3
                    },
                    "indices": 0
                },
                {
                    "material": 1,
                    "mode": 4,
                    "attributes": {
                        "NORMAL": 6,
                        "POSITION": 5,
                        "TEXCOORD_0": 7
                    },
                    "indices": 4
                },
                {
                    "material": 2,
                    "mode": 4,
                    "attributes": {
                        "NORMAL": 10,
                        "POSITION": 9,
                        "TEXCOORD_0": 11
                    },
                    "indices": 8
                }
            ]
        }
    ],
    "nodes": [
        {
            "name": "RootNode",
            "translation": [
                0.0,
                0.0,
                0.0
            ],
            "rotation": [
                0.0,
                0.0,
                0.0,
                1.0
            ],
            "scale": [
                1.0,
                1.0,
                1.0
            ],
            "children": [
                1
            ]
        },
        {
            "name": "Great Sword",
            "translation": [
                0.0,
                0.0,
                0.0
            ],
            "rotation": [
                -0.707106828689575,
                0.0,
                0.0,
                0.707106709480286
            ],
            "scale": [
                100.0,
                100.0,
                100.0
            ],
            "mesh": 0
        }
    ]
}